<?xml version="1.0" encoding="utf-8"?>
<!-- Generator: Adobe Illustrator 18.0.0, SVG Export Plug-In . SVG Version: 6.00 Build 0)  -->
<!DOCTYPE svg PUBLIC "-//W3C//DTD SVG 1.1//EN" "http://www.w3.org/Graphics/SVG/1.1/DTD/svg11.dtd">
<svg version="1.1" id="Layer_1" xmlns="http://www.w3.org/2000/svg" xmlns:xlink="http://www.w3.org/1999/xlink" x="0px" y="0px"
     viewBox="0 0 183 255.8" enable-background="new 0 0 183 255.8" xml:space="preserve">
<path fill="#FFFFFF" d="M2.1,154.8L3,19c0,0-0.5-7,5.7-6.9l167.2,1c0,0,5.6,1.7,5.6,7.4l-0.1,134.3H2.1z"/>
    <rect x="60.3" y="162.9" fill="#231916" width="42.5" height="42.5"/>
    <path fill="none" stroke="#231916" stroke-width="3" stroke-miterlimit="10" d="M26.6,12.5c0,0-0.2-4.2-0.2-12.5"/>
    <path fill="none" stroke="#231916" stroke-width="3" stroke-miterlimit="10" d="M156.1,0.2c0,8.2-0.2,12.5-0.2,12.5"/>
    <path fill="none" stroke="#231916" stroke-width="3" stroke-miterlimit="10" d="M180,247.5c0,3.8-2.6,6.8-5.7,6.8L7.1,253.2
	c-3.1,0-5.6-3.1-5.6-6.9L3,18.8C3,15,5.6,11.9,8.7,12L175.9,13c3.1,0,5.6,3.1,5.6,6.9L180,247.5z"/>
    <rect x="154.9" y="11.1" fill="#231916" width="2.4" height="8.2"/>
    <rect x="155.2" y="17.2" fill="#231916" width="1.6" height="5"/>
    <rect x="25.7" y="11.1" fill="#231916" width="2.4" height="8.2"/>
    <rect x="26" y="17.2" fill="#231916" width="1.6" height="5"/>
    <path fill="#231916" d="M28.6,126.2l0.2-33.5c0,0-1.7,0.3-2.2-0.7s-2-2.2-2-2.2h-0.8v-6.5l2.5-1l-0.3-9c0,0,1.3,0.3,2-0.5
	c0.7-0.8,0.7-5.2,0.7-5.2l3-0.2l-0.2,3.8h2l-0.2-2.8l1.3-0.5l0.3-1.2h1.5l-0.3-10.8v-2.8l1-0.8l-0.3-0.7h2.7l0.2,1.7h0.8l2.2,0.7
	l0.5-1.3h2l0.5,12h1.5L47,52.1h5.3l0.3,3.5l0.8,1l-0.2,5.2l6.2-0.2l0.2-4.3h1.7l4.2-0.2l0.2-1.2h4l0.5,1.7l1.2,0.3l0.3,1.3h0.7
	l0.2,2h4.3l0.3-7.3l1.7-0.3v-1.5l1-0.2v-1.5l4.7,0.2l0.2,1.5l1.2,0.3l0.2,2.5l1.2,0.3l-0.3,3.7h1.7v-2.5l8,0.5v1.3l1.3,0.3v-2l6,0.7
	l3.7,0.7l-0.7-9.5h2.7v-1.8l1.2-0.2l0.7-1.2l5.2-0.2l0.5,1.8l1.7,0.2v3l1.5,0.8l-0.3,5.5l2,0.7v-1.7l5.3,0.2l0.3,2.5h2.7l-0.3-2h5.2
	l0.5,1.5l2.8-0.3l8.2-7.5l2.7,3.5l0.2,12.2l2.3,0.8l-0.2,2.8l7.3,0.5l0.5-4.8l8.2,0.3l1,3.7l4.2,0.2l0.2-5.2l8.2,0.3l-0.8,79.3
	l-117-6.2l-33.2-3L28.6,126.2z"/>
    <path fill="#FFFFFF" d="M31.3,128.4v-40l-3.2-0.5v-3.3h1V74.1l5.2-1l4.5-6.5l0.3-10.3l3.2,0.3l0.7,4.3l1,0.5l0.2,3.5l-6.8,6.2
	L37,73.8l4.8-0.3l0.3-0.8l6,0.2V53.6h3l0.3,4.2l0.5,7.2l-1.7,3.2v4.7H52v-3.7h1.5v3.8h8.3v-2.8h2.8v2.7h3.8v-1.5h9.7l2.3-1.7v-4.8
	l-1.2-1.2v-7.6h1.2v-1.7h3.8v1.7l1.2,0.7v3.8h4.3l1.2-1.2h2.7v1.3h4.2l2-1.8l9.2,2.7V50.9l2.3-2.5l3.8,0.2l2,1l1,3v6.8l4.5,1
	l0.3-2.2l1.5-0.2l2.2,2.7l4.8-0.5l-0.5-3h3.7c0,0,0.6,1.8,1.6,1.5c0.7-0.2,1.5,0.4,2.3,0c0.5-0.8,7.6-6.7,7.6-6.7l1.8,1.5l0,6.5
	l-0.2,4.3l1,2.5l0.5,2.2c0,0-34.8,0.5-36.7,6.7l0.2,42l-3.5,4.7l-9.8,9.3l-56.5,3l-11.7-5.8"/>
    <path fill="#FFFFFF" stroke="#231916" stroke-miterlimit="10" d="M112.3,134.4l-0.3,7l67.3,2.8c0,0,0.5-12.2-0.7-12.7
	c-1.2-0.5-9.5-2.7-23.5-1.7S115.6,129.7,112.3,134.4z"/>
    <path fill="#FFFFFF" stroke="#231916" stroke-miterlimit="10" d="M112.5,129.8l0.5-8.7c0,0-0.7-3.3,9.2-4.7c9.8-1.3,21.8-3,32.8-2.8
	c11,0.2,24.3,1.3,24.3,1.3l-0.3,13l-29.5-0.2L112.5,129.8z"/>
    <path fill="#FFFFFF" stroke="#231916" stroke-miterlimit="10" d="M114.5,115.2c0,0,1.3-0.8,11-2.2c9.7-1.3,43.8-3,48.5-1.8
	c4.7,1.2,4.7,1.2,4.7,1.2l0.3-8c0,0-15.3-1.5-23.3-0.7s-37.5,4.8-40,7.3L114.5,115.2z"/>
    <path fill="#FFFFFF" stroke="#231916" stroke-miterlimit="10" d="M115,89.8l-0.5,19.5c0,0,23.7-5.8,29.7-6.5s24.8-1.2,28.7-1
	c3.8,0.2,6.3,0.3,6.3,0.3l-0.5-17.5C178.6,84.6,120.1,85.1,115,89.8z"/>
    <path fill="#FFFFFF" stroke="#231916" stroke-miterlimit="10" d="M115,75.4l-0.2,11.5c0,0,23.7-4,32.5-4c8.8,0,31-0.5,31-0.5
	l0.5-16.2H175l-0.5,4.2l-6.8,0.2l-1.8-3.8l-4.7-0.2l-1,4.8C160.1,71.4,131.6,68.7,115,75.4z"/>
    <rect x="60.3" y="75.4" fill="#231916" width="7.3" height="10.3"/>
    <rect x="90.8" y="64.8" fill="#231916" width="5.8" height="9.2"/>
    <rect x="87.8" y="77.2" fill="#231916" width="7.3" height="9.2"/>
    <rect x="111.5" y="65.4" fill="#231916" width="5.7" height="6.8"/>
    <rect x="133.8" y="66.1" fill="#231916" width="6.3" height="4.5"/>
    <rect x="116.3" y="78.3" fill="#231916" width="4" height="4.5"/>
    <rect x="132.1" y="76" fill="#231916" width="6" height="5.1"/>
    <rect x="152.5" y="73.7" fill="#231916" width="6" height="5.1"/>
    <rect x="62.3" y="90.6" fill="#231916" width="5.5" height="8"/>
    <g>
	<path fill="#231916" d="M16.8,135.7C16.8,135.6,16.8,135.6,16.8,135.7C16.8,135.6,16.4,135.9,16.8,135.7z"/>
        <path fill="#231916" d="M180.8,145.8l-0.7-2.3l-0.7-0.7h-2.3l-4.3,0.5c0,0-2.7-1.2-3.2-1.3s-4.2-0.3-4.5,0.5s-1.3,1-4.5,0.8
		s-3.8,0-3.8,0l-0.8-1.7c0,0-3.5-0.3-3.5,0.7s-4.5,0.7-6.8,1s-2.8-0.2-2.8-0.2l-1.3-1.5l-1.3-0.5l-1-1.3h-1.5l-0.5,2.5l-4.3,0.2
		l-0.2-1.1l-1.3-0.8l-0.5-1.2l-1.8-0.7c0,0-0.2,2-0.7,3c-0.5,1-8-1.3-10.5-1.7c-2.5-0.3-7.7-0.5-7.7-0.5s0.3-2.8,0.2-3.3
		s-0.7-4.8-0.3-8.3c0.3-3.5-0.7-5.5-0.7-5.5s-2.2-0.3-2.3-0.8s-1.5-1.7-3.7-1.7s-2.7,0-3,1s-2.7,1.2-4.5,1.7s-2.3,0.2-3.3,1
		s-3.2,2.2-3.7,2.2s-5.2,0.5-7.5,0.5s-1.7-1.8-2-2.8s-2.2-0.5-3.2-0.5s-4.7-0.3-4.7-0.3l-2.8-1.2c0,0-2.5,1-2.7,2s-2,1.8-3.7,1.8
		s-1.8-0.3-1.8-0.3s-1-0.3-1.8-0.7s-1.2,0.3-2.3,1.2s-1.5,1.3-3.3,2.7s-1.8,0.8-2.8,2.5s-1,2.2-2.5,2.7s-1.7-0.3-1.7-1.2
		s-0.8-1.7-2.8-1.3s-3.3,0.5-3.5,0s-0.8-0.7-1.5-1.5s-3.2-0.5-3.7-0.5s-2.2-0.2-3.2-0.3s-1.5-1.7-2.7-2.2s0,0-1.5,0
		s-0.5,2.2-2.5,2.2s-1,0.2-2.3,1.5s-2.3,3.7-4.3,5c-0.6,0.4-1,0.6-1.2,0.7c0,0.3,0.1,1.2-0.5,3.8c-0.7,3-0.8,1.8-0.8,1.8
		s-2.8,0.7-4.7,2s-0.5,1.3-1.7,3s-1.7,0.7-3.3,1.2s-3.7,2.2-3.7,2.2l-0.3,77.7l-0.3,19.1c0,0-0.2,6.7,6.3,6.5c6.5-0.2,87,0.6,87,0.6
		l73,0.9c0,0,12.2,2.2,12.2-7.9c0-10,0-15.4,0-15.4L180.8,145.8z M79.8,190.5c-4,0-7.3-3.3-7.3-7.4c0-4.1,3.3-7.4,7.3-7.4
		s7.3,3.3,7.3,7.4C87,187.2,83.8,190.5,79.8,190.5z"/>
</g>
    <g>
	<path fill="#FFFFFF" d="M41.7,163.1c-0.4,1.6-1.1,2.8-2.2,3.5c-1,0.8-2.5,1.1-4.2,1.1c-2.6,0-4.6-0.7-6.1-2.1
		c-1.5-1.4-2.3-3.4-2.3-5.8c0-2.4,0.8-4.4,2.3-5.8c1.5-1.4,3.5-2.1,6.1-2.1c0.9,0,1.9,0.1,2.8,0.3s2,0.6,3.1,1v3.8H40
		c-0.3-1.3-0.8-2.2-1.5-2.9c-0.7-0.6-1.6-1-2.8-1c-1.5,0-2.6,0.5-3.3,1.6c-0.7,1.1-1.1,2.8-1.1,5.1c0,2.3,0.4,4,1.1,5.1
		s1.8,1.6,3.3,1.6c1,0,1.9-0.3,2.5-0.9c0.6-0.6,1.1-1.4,1.4-2.6H41.7z"/>
        <path fill="#FFFFFF" d="M49.9,167.5v-1.2h1.3l5.8-14.1h2.5l5.8,14.1h1.5v1.2h-7.2v-1.2h1.5l-1.3-3.1h-5.8l-1.3,3.1h1.8v1.2H49.9z
		 M54.4,161.9h4.7l-2.4-5.9L54.4,161.9z"/>
        <path fill="#FFFFFF" d="M75.3,166.8v-3.6h1.3c0.2,1.1,0.7,2,1.4,2.6c0.7,0.6,1.8,0.9,3.1,0.9c1.1,0,1.9-0.2,2.4-0.6
		c0.6-0.4,0.8-1,0.8-1.8c0-0.6-0.2-1.1-0.6-1.4s-1.2-0.7-2.3-1l-2.3-0.6c-1.5-0.4-2.5-0.9-3.2-1.6c-0.6-0.7-0.9-1.6-0.9-2.9
		c0-1.5,0.5-2.7,1.5-3.5c1-0.8,2.4-1.3,4.2-1.3c0.9,0,1.8,0.1,2.8,0.2s2,0.4,3,0.7v3.4h-1.3c-0.2-1.1-0.6-1.8-1.3-2.3
		c-0.7-0.5-1.6-0.7-2.9-0.7c-1,0-1.8,0.2-2.3,0.5c-0.5,0.4-0.8,0.9-0.8,1.6c0,0.6,0.2,1.1,0.5,1.5c0.4,0.3,1.2,0.7,2.6,1l2.3,0.6
		c1.4,0.4,2.5,0.9,3.1,1.7c0.6,0.8,1,1.8,1,3.1c0,1.5-0.5,2.7-1.6,3.5c-1.1,0.8-2.6,1.2-4.7,1.2c-1,0-2-0.1-3-0.3
		S76.3,167.1,75.3,166.8z"/>
        <path fill="#FFFFFF" d="M100,167.5v-1.2h2v-12.7h-4.2v2.4h-1.4v-3.8h15.2v3.8h-1.4v-2.4H106v12.7h2v1.2H100z"/>
        <path fill="#FFFFFF" d="M120.1,167.5v-1.2h2v-12.8h-2v-1.2h7.9v1.2h-2v12.7h6v-2.4h1.4v3.8H120.1z"/>
        <path fill="#FFFFFF" d="M142.2,167.5v-1.2h2v-12.8h-2v-1.2h13.8v3.6h-1.4v-2.2h-6.4v4.9h4v-1.9h1.4v5.3h-1.4v-1.9h-4v6.2h6.6v-2.2
		h1.4v3.6H142.2z"/>
</g>
    <g>
	<path fill="#FFFFFF" d="M23.8,215v-1.2h2v-12.8h-2v-1.2h7.9v1.2h-2v5.1h6.1v-5.1h-2v-1.2h7.9v1.2h-2v12.8h2v1.2h-7.9v-1.2h2v-6.3
		h-6.1v6.3h2v1.2H23.8z"/>
        <path fill="#FFFFFF" d="M59.1,215.3c-2.6,0-4.6-0.7-6.1-2.1s-2.2-3.3-2.2-5.8s0.7-4.4,2.2-5.8c1.5-1.4,3.5-2.1,6.1-2.1
		c2.6,0,4.6,0.7,6.1,2.1s2.2,3.4,2.2,5.8c0,2.5-0.7,4.4-2.2,5.8C63.7,214.6,61.6,215.3,59.1,215.3z M59.1,214.1
		c1.3,0,2.3-0.5,2.9-1.7s1-2.8,1-5c0-2.3-0.3-4-1-5.1s-1.6-1.7-2.9-1.7c-1.3,0-2.3,0.6-2.9,1.7c-0.6,1.1-1,2.8-1,5
		c0,2.2,0.3,3.9,1,5C56.8,213.5,57.8,214.1,59.1,214.1z"/>
        <path fill="#FFFFFF" d="M77.2,214.3v-3.6h1.3c0.2,1.1,0.7,2,1.4,2.6c0.7,0.6,1.8,0.9,3.1,0.9c1.1,0,1.9-0.2,2.4-0.6
		c0.6-0.4,0.8-1,0.8-1.8c0-0.6-0.2-1.1-0.6-1.4s-1.2-0.7-2.3-1l-2.3-0.6c-1.5-0.4-2.5-0.9-3.2-1.6c-0.6-0.7-0.9-1.6-0.9-2.9
		c0-1.5,0.5-2.7,1.5-3.5c1-0.8,2.4-1.3,4.2-1.3c0.9,0,1.8,0.1,2.8,0.2s2,0.4,3,0.7v3.4h-1.3c-0.2-1.1-0.6-1.8-1.3-2.3
		c-0.7-0.5-1.6-0.7-2.9-0.7c-1,0-1.8,0.2-2.3,0.5c-0.5,0.4-0.8,0.9-0.8,1.6c0,0.6,0.2,1.1,0.5,1.5c0.4,0.3,1.2,0.7,2.6,1l2.3,0.6
		c1.4,0.4,2.5,0.9,3.1,1.7c0.6,0.8,1,1.8,1,3.1c0,1.5-0.5,2.7-1.6,3.5c-1.1,0.8-2.6,1.2-4.7,1.2c-1,0-2-0.1-3-0.3
		S78.2,214.6,77.2,214.3z"/>
        <path fill="#FFFFFF" d="M101.8,215v-1.2h2v-12.7h-4.2v2.4h-1.4v-3.8h15.2v3.8H112v-2.4h-4.2v12.7h2v1.2H101.8z"/>
        <path fill="#FFFFFF" d="M121.9,215v-1.2h2v-12.8h-2v-1.2h13.8v3.6h-1.4v-2.2h-6.4v4.9h4v-1.9h1.4v5.3h-1.4v-1.9h-4v6.2h6.6v-2.2
		h1.4v3.6H121.9z"/>
        <path fill="#FFFFFF" d="M145.3,215v-1.2h2v-12.8h-2v-1.2h7.9v1.2h-2v12.7h6v-2.4h1.4v3.8H145.3z"/>
</g>
    <g>
	<path fill="#FFFFFF" d="M56.8,183.3c0.6,0.1,1.1,0.3,1.5,0.6s0.8,0.8,1.1,1.4l2.2,4.3h1.6v1.2h-5l-2.4-4.6c-0.5-1-0.9-1.6-1.2-1.8
		c-0.3-0.3-0.8-0.4-1.4-0.4h-0.6v5.6h2v1.2h-7.9v-1.2h2v-12.8h-2v-1.2h8.7c1.8,0,3.1,0.4,4.1,1.1c1,0.7,1.5,1.7,1.5,3
		c0,1.1-0.3,1.9-1,2.5C59.2,182.7,58.2,183.1,56.8,183.3z M52.6,182.7h1.3c1,0,1.7-0.3,2.2-0.8s0.8-1.3,0.8-2.2c0-1-0.3-1.7-0.8-2.2
		c-0.5-0.5-1.3-0.8-2.2-0.8h-1.3V182.7z"/>
        <path fill="#FFFFFF" d="M79.6,191c-2.6,0-4.6-0.7-6.1-2.1s-2.2-3.3-2.2-5.8s0.7-4.4,2.2-5.8c1.5-1.4,3.5-2.1,6.1-2.1
		c2.6,0,4.6,0.7,6.1,2.1s2.2,3.4,2.2,5.8c0,2.5-0.7,4.4-2.2,5.8C84.1,190.3,82.1,191,79.6,191z M79.6,189.8c1.3,0,2.3-0.5,2.9-1.7
		s1-2.8,1-5c0-2.3-0.3-4-1-5.1s-1.6-1.7-2.9-1.7c-1.3,0-2.3,0.6-2.9,1.7c-0.6,1.1-1,2.8-1,5c0,2.2,0.3,3.9,1,5
		C77.3,189.3,78.3,189.8,79.6,189.8z"/>
        <path fill="#FFFFFF" d="M111.7,186.4c-0.4,1.6-1.1,2.8-2.2,3.5c-1,0.8-2.5,1.1-4.2,1.1c-2.6,0-4.6-0.7-6.1-2.1
		c-1.5-1.4-2.3-3.4-2.3-5.8c0-2.4,0.8-4.4,2.3-5.8c1.5-1.4,3.5-2.1,6.1-2.1c0.9,0,1.9,0.1,2.8,0.3s2,0.6,3.1,1v3.8H110
		c-0.3-1.3-0.8-2.2-1.5-2.9c-0.7-0.6-1.6-1-2.8-1c-1.5,0-2.6,0.5-3.3,1.6c-0.7,1.1-1.1,2.8-1.1,5.1c0,2.3,0.4,4,1.1,5.1
		s1.8,1.6,3.3,1.6c1,0,1.9-0.3,2.5-0.9c0.6-0.6,1.1-1.4,1.4-2.6H111.7z"/>
        <path fill="#FFFFFF" d="M121,190.8v-1.2h2v-12.8h-2v-1.2h7.9v1.2h-2v5.6l6.5-5.6h-1.6v-1.2h5.7v1.2h-2l-5.5,4.7l7.5,8.1h1.5v1.2
		h-5.2l-6.8-7.4v6.2h2v1.2H121z"/>
</g>
    <path fill="#FFFFFF" d="M6.8,251.8c0,0-2.6-0.3-2.9-3.9c-0.3-3.6-0.1-5.4-0.1-5.4l0.1-4.2l1.1-2.2c0,0,3.7-3.8,5-4.2
	c1.3-0.3,2.3,0.5,2.3,0.5l2.2-0.3l0.7-2l1.7,0.8l1.5,1.3l3.2-1.2l1.7,0.2l2.5,1.5l3.7-0.2l2.5,0.8l2.3,0.7l1-3l3.8,0.7l4.2,0.2
	l0.7-1.3l1.7,1.5l2,0.3l1-0.8l1.7-1.2l1.8,1.2h4.8l2.5-0.8l4.3,0.2l2.2,0.2l6.5,0.5l2-1.3l3.8-1.3l0.7,1.8l2.2,0.5l0.5-1l1.5,0.5
	l1,1.2l0.5-1.5l1.5-1.2l4.5,0.3l0.7,1.2l1.5-0.8l0.8-2.8l2,1.3v1.2l1.7,0.2l2,0.3l3.3-0.2c0-1.7,0-1.7,0-1.7h0.8l1,0.8l2.3,1
	l2.7-0.5c0,0,0.3-0.2,0.8,0s2,0.7,2,0.7l0.2,1.3c0,0,0.5,0.7,1.2,0.5c0.7-0.2,0.7-1,0.7-1l4,0.3l5.7-0.5l0.8-1.7h1.2l0.3,1.5
	l0.8,0.2l0.5-1l1.8,0.3l1.5,1.2l1.7-0.3l1,1.3h1.2l0.8-2.2l1.8-0.7l0.2,1.2l1.2,0.7l0.2-1.2l1.2-0.3v0.8l1,0.7l0.7-1l0.2-1.2l0.7-1
	l1.3,1.2l0.2,1.2l1.3,1l0.3-0.7l2,0.2l2.7,0.8l3.7-2.3l3.3-0.2l0.5,1.2l2.3,0.8l2.8-0.2v-1l3.5,0.5l2.2,0.7l0.8-0.2l1.8-0.2l1.3-0.2
	l1.8-0.2l1.3-0.5l2.3,0.7l1.2,0.8v0.5l-0.5,4.8c0,0,0.2,8.3,0.2,11.2c-0.1,2.9-3.3,3.2-3.3,3.2L6.8,251.8z"/>
    <g>
	<path fill="#231916" d="M33.4,236.3c0.3,0,0.6,0,0.8,0.1c0.4,0.1,0.9,0.1,1.4,0.1c0.2,0,0.7,0,1.4,0c1.2,0,2.2-0.1,3.1-0.1l1.4,0
		c0.3,0,0.8,0,1.4,0.1c0.1,0.1,0.1,0.2,0.1,0.4v1.6l0,0.3c0,0,0,0.1,0,0.1l-0.3,0c0,0-0.1,0-0.3,0c0-0.1-0.1-0.3-0.2-0.5l-0.3-0.6
		c-0.1-0.2-0.3-0.5-0.5-0.7c-0.1,0-0.3-0.1-0.5-0.1c-0.1,0-0.2,0-0.5,0c-0.5,0-1-0.1-1.6-0.1c-0.6,0-1.2,0-1.7,0c0,0.1,0,0.6,0,1.5
		l0,1.3v1c0.1,0,0.2,0,0.3,0c0.9,0,1.6,0,2-0.1c0.4,0,0.6-0.1,0.7-0.2c0.1-0.1,0.2-0.2,0.3-0.3c0-0.1,0.1-0.5,0.3-1.1l0.1,0l0.5,0
		c0,0.5,0,0.8,0,1.1c0,0.5,0,0.9,0,1.1s0,0.3,0,0.4c0,0.1,0,0.4,0,0.7s0,0.5,0,0.7v0.2H41c0-0.1-0.1-0.3-0.1-0.5
		c-0.1-0.5-0.2-0.8-0.3-0.9c-0.1-0.1-0.2-0.2-0.3-0.2c-0.1,0-0.5-0.1-1.2-0.1c-0.8,0-1.4,0-1.8,0.1c0,0.1,0,0.2,0,0.3
		c0,0.6,0,1.1,0,1.5l0,1.7c0,0.2,0.1,0.3,0.2,0.4c0.2,0.1,0.9,0.2,2,0.2c0.7,0,1.3-0.1,1.8-0.2c0.3-0.1,0.7-0.3,0.9-0.5
		c0.4-0.3,0.6-0.8,0.9-1.5c0.2,0,0.3,0,0.4,0c0.1,0,0.1,0,0.3,0c0,0.1,0,0.2,0,0.3l0,0.2l-0.3,1.5l-0.1,0.9c-0.3,0-0.6,0-0.8,0
		c-0.3,0-1.1,0-2.3-0.1c-0.9,0-2-0.1-3.2-0.1c-0.6,0-1.4,0-2.3,0.1h-0.3l-0.9,0v-0.5c0.1,0,0.3-0.1,0.6-0.1c0.5-0.1,0.9-0.1,1.1-0.2
		c0.1-0.2,0.1-0.3,0.1-0.6c0-0.1,0-0.2,0-0.5l0-0.2l0-2.9l0-0.9l0-1.2l0-0.9l-0.1-1c0,0,0-0.1,0-0.2c-0.1-0.1-0.1-0.1-0.2-0.1
		c-0.1,0-0.1,0-0.2,0c-0.3-0.1-0.6-0.1-0.9-0.1c-0.1,0-0.2,0-0.3,0L33.4,236.3z"/>
        <path fill="#231916" d="M46.4,245.8c0.1,0,0.2-0.1,0.5-0.1c0.5-0.1,0.8-0.2,1-0.3c0.1-0.1,0.2-0.3,0.2-0.5c0-0.1,0-0.9,0.1-2.4
		l0-0.9l0-1l0-2.7v-0.3c0-0.1,0-0.2-0.1-0.3c0,0-0.1-0.1-0.3-0.1c-0.1,0-0.3,0-0.5,0c-0.2,0-0.4,0-0.6,0.1c0,0-0.1,0-0.1,0l0-0.7
		c0.3-0.1,0.7-0.2,1.3-0.3c0.9-0.2,2.1-0.2,3.5-0.2c1.2,0,2,0.1,2.5,0.2c0.8,0.2,1.5,0.5,2,0.9c0.7,0.5,1.2,1.2,1.5,1.9
		c0.3,0.7,0.5,1.5,0.5,2.3c0,1.1-0.2,2-0.7,2.7c-0.5,0.8-1.1,1.4-2,1.8c-0.6,0.3-1.4,0.5-2.5,0.5l-1.6-0.1l-0.5,0l-0.6,0l-0.2,0
		l-0.7,0l-0.9,0c0,0-0.3,0-0.8,0c-0.2,0-0.4,0-0.7,0c-0.2,0-0.3,0-0.4,0C46.4,246.3,46.4,246.1,46.4,245.8z M50.2,237.1
		c0,0.2,0,0.3,0,0.3l0,1.3v1.2c0,0.4,0,0.7,0,1l0,0.7l0,1.2l0,0.8c0,0.7,0.1,1.2,0.4,1.5c0.4,0.4,0.9,0.5,1.6,0.5
		c0.5,0,0.9,0,1.1-0.1c0.5-0.2,0.9-0.5,1.2-0.8c0.3-0.3,0.5-0.8,0.7-1.4s0.2-1.2,0.2-1.9c0-1.1-0.2-1.9-0.5-2.6
		c-0.3-0.7-0.8-1.2-1.4-1.5c-0.6-0.3-1.3-0.5-2-0.5C51,236.8,50.6,236.9,50.2,237.1z"/>
        <path fill="#231916" d="M60.7,246.4v-0.6c0.1,0,0.3-0.1,0.5-0.1c0.3-0.1,0.6-0.2,0.8-0.3c0.1-0.2,0.1-0.4,0.1-0.7l0-0.9l0-1.8
		l0-0.4c0-1,0.1-1.6,0.1-1.6l0-1l0-0.4l0-0.9l0-0.3c0-0.1,0-0.1-0.1-0.2c-0.2-0.1-0.6-0.2-1-0.2c-0.1,0-0.2,0-0.3,0l0-0.7l2.2,0.1
		c0.3,0,0.4,0,0.5,0c0.3,0,0.8,0,1.5-0.1c0.4,0,0.6,0,0.7,0c0,0.1,0,0.2,0,0.2c0,0.1,0,0.2,0,0.3c-0.2,0.1-0.4,0.1-0.7,0.2
		s-0.5,0.1-0.7,0.2c0,0.1,0,0.3,0,0.6c0,0.2,0,0.4,0,0.5c0,0.9,0,1.6,0,2l0,2.1l0,1l0,1.6l0,0.3c0,0,0,0.1,0,0.2
		c0.3,0.1,0.6,0.1,0.9,0.1c0,0,0.2,0,0.5,0.1c0,0.2,0,0.3,0,0.4c0,0.1,0,0.1,0,0.3c-0.1,0-0.1,0-0.2,0c-0.2,0-0.3,0-0.3,0
		c0,0-0.1,0-0.2,0c-0.1,0-0.4,0-1-0.1l-1.4,0c-0.3,0-0.7,0-1.2,0.1C61.1,246.4,60.9,246.4,60.7,246.4z"/>
        <path fill="#231916" d="M68.1,236.9l0-0.5h0.7l0.2,0c0.3,0,0.5,0,0.6,0c0.1,0,0.2,0,0.5,0c0.1,0,0.1,0,0.2,0s0.2,0,0.5,0
		s0.4,0,0.5,0c0.1,0,0.1,0,0.2,0c0.8,0.7,1.5,1.4,2,1.9c0.5,0.5,2.3,2.4,5.5,5.5v-0.2l0-0.9c0-0.5,0-1-0.1-1.3c0-0.3,0-0.7,0-1.1
		c0-0.4,0-0.8-0.1-1.2c-0.1-0.7-0.1-1.1-0.1-1.2c0-0.3,0-0.5-0.1-0.6c-0.1-0.1-0.4-0.2-0.8-0.3c-0.3,0-0.5-0.1-0.6-0.2l0-0.5l0.2,0
		l1.5,0l1.7,0c0.1,0,0.2,0,0.3,0l0,0.5c-0.1,0.1-0.2,0.1-0.4,0.1c-0.3,0.1-0.5,0.1-0.6,0.2c-0.3,0.2-0.4,0.2-0.4,0.3
		c0,0.1-0.1,0.2-0.1,0.3c0,0,0,0.1,0,0.3c0,0.1,0,0.3,0,0.7c0,0.8,0,1.4,0.1,1.8c0,0.1,0,0.3,0,0.5l0.1,2.7c0,0.2,0,0.3,0,0.4v1
		l0,0.4l0,0.4c0,0.2,0,0.3,0,0.4v0.4l-0.9,0l-0.9-1l-1.9-1.9l-1.3-1.3l-1-1c-0.6-0.6-1.2-1.2-1.7-1.6l-1.3-1.1l0.1,2.9
		c0,0.2,0,0.4,0,0.5l0,0.6l0,1c0,0.4,0,0.9,0.1,1.4c0,0.1,0,0.2,0,0.3s0,0.1,0.1,0.2c0.2,0.1,0.6,0.1,1.3,0.2c0,0,0.1,0,0.2,0.1
		l0,0.6l-0.3,0c-0.2,0-0.7,0-1.6-0.1c-0.8,0-1.4,0-1.7,0c-0.3,0-0.4,0-0.5,0c-0.1,0-0.1,0-0.3,0c0-0.1,0-0.2,0-0.3
		c0-0.1,0-0.2,0-0.3c0.1,0,0.3,0,0.4,0c0,0,0.1,0,0.3,0c0.4,0,0.7,0,0.8-0.1c0.1-0.1,0.1-0.2,0.1-0.5c0-0.8,0.1-1.3,0.1-1.5v-0.4
		l0-2.5l0-1.6c0-0.6,0-1-0.1-1.3c0-0.1-0.1-0.2-0.2-0.3c-0.2-0.2-0.4-0.3-0.6-0.4C69,237.1,68.7,237,68.1,236.9z"/>
        <path fill="#231916" d="M83.7,246.5l0-0.6c0.1,0,0.3-0.1,0.5-0.1c0.3,0,0.6-0.1,0.8-0.2c0.1-0.1,0.1-0.2,0.1-0.3
		c0-0.3,0.1-0.7,0.1-1.3l0-3.3c0-0.3,0-1.2-0.1-2.7c0-0.4,0-0.6-0.1-0.7c0,0,0-0.1-0.1-0.1c-0.1-0.1-0.2-0.1-0.5-0.1
		c-0.1,0-0.4,0-0.8-0.1l0-0.6l1.8,0l2.6-0.1l0.3,0c0.1,0,0.1,0,0.2,0c0.1,0,0.2,0,0.4,0h0.5c0.4,0,0.8,0.1,1.3,0.2
		c0.2,0,0.4,0.1,0.6,0.3c0.3,0.1,0.5,0.3,0.7,0.5s0.3,0.4,0.4,0.7s0.1,0.5,0.1,0.8c0,0.3-0.1,0.6-0.2,0.9s-0.4,0.5-0.6,0.7
		c-0.1,0.1-0.5,0.3-1,0.5c0.8,0.2,1.4,0.5,1.8,1c0.4,0.5,0.6,1,0.6,1.6c0,0.3-0.1,0.7-0.2,1.1c-0.1,0.3-0.3,0.5-0.5,0.8
		c-0.3,0.3-0.6,0.6-0.9,0.7c-0.3,0.2-0.8,0.3-1.4,0.4c-0.3,0.1-0.7,0.1-1.3,0.1l-1.3,0c-0.6,0-1.2,0-2,0.1
		C85.3,246.4,84.7,246.4,83.7,246.5z M87.4,240.5c0.2,0,0.5,0,0.7,0c0.8,0,1.4-0.1,1.8-0.4c0.4-0.3,0.6-0.8,0.6-1.5
		c0-0.5-0.2-0.9-0.6-1.2c-0.4-0.3-1-0.5-1.7-0.5c-0.2,0-0.5,0-0.9,0.1c0,0.1,0,0.3,0,0.5c0,0.4,0,1.1,0,1.9l0,0.7
		C87.3,240.1,87.3,240.3,87.4,240.5z M87.4,245.5c0.3,0.1,0.7,0.2,0.9,0.2c0.6,0,1.1-0.1,1.5-0.3s0.6-0.4,0.8-0.8s0.3-0.7,0.3-1.2
		c0-0.5-0.1-0.9-0.3-1.2c-0.3-0.4-0.6-0.7-0.9-0.8c-0.4-0.1-0.9-0.2-1.7-0.2c-0.3,0-0.6,0-0.7,0.1v1l0,1.2l0,1.8
		C87.4,245.3,87.4,245.4,87.4,245.5z"/>
        <path fill="#231916" d="M95.7,236.9l0-0.6c0.1,0,0.2,0,0.3,0c0.3,0,0.5,0,0.8,0c0.7,0,1.1,0.1,1.2,0.1c0.4,0,0.8,0,1.2,0
		c0.4,0,0.8,0,1.1,0c0.3,0,0.5,0,0.6,0l0,0.1l0,0.5v0.1c-0.3,0-0.6,0.1-0.9,0.1c-0.3,0-0.5,0.1-0.6,0.2c-0.1,0.1-0.1,0.4-0.1,0.9
		c0,0.2,0,0.3,0,0.4l0,0.3l0,0.7l0,0.6l0,1.4l0.1,2c0,0.6,0.2,1,0.4,1.4c0.2,0.3,0.4,0.5,0.7,0.6c0.4,0.2,0.9,0.3,1.3,0.3
		c0.5,0,1-0.1,1.4-0.2c0.3-0.1,0.5-0.2,0.7-0.4s0.4-0.3,0.5-0.4c0.2-0.3,0.3-0.6,0.4-0.8c0.1-0.3,0.1-0.9,0.1-1.6
		c0-1.3-0.1-2.7-0.2-4.3l0-0.4c0-0.3-0.1-0.5-0.2-0.6c-0.2-0.2-0.4-0.2-0.6-0.2l-0.7,0l-0.1,0l0-0.6h0.6l1.5,0.1c0.5,0,1,0,1.4-0.1
		l0.1,0c0,0.2,0,0.3,0,0.4c0,0.1,0,0.1,0,0.2c-0.2,0.1-0.4,0.1-0.6,0.1c-0.3,0-0.5,0.1-0.6,0.1c-0.1,0.1-0.1,0.2-0.1,0.3
		c0,0.1,0,0.2,0,0.4c0,0.1,0,0.4,0,0.7c0,0.2,0,0.3,0,0.4c0,0.1,0,0.2,0,0.3c0,0.4,0,0.8,0,1.1l0.1,1.6c0,1.1,0,1.8-0.1,2.1
		c-0.1,0.4-0.2,0.6-0.3,0.9c-0.2,0.3-0.5,0.6-0.8,0.9c-0.4,0.3-0.8,0.5-1.3,0.6c-0.5,0.2-1.2,0.2-1.9,0.2c-0.8,0-1.5-0.1-2.1-0.3
		s-1-0.5-1.3-0.9c-0.3-0.4-0.5-0.8-0.6-1.4c-0.1-0.4-0.1-0.9-0.1-1.7v-3.7c0-0.9,0-1.4-0.1-1.5c-0.1-0.2-0.5-0.3-1.1-0.3
		C95.9,237,95.8,237,95.7,236.9z"/>
        <path fill="#231916" d="M109.9,245.9c0.1-0.1,0.3-0.1,0.6-0.2s0.5-0.1,0.7-0.2c0-0.1,0-0.2,0-0.2c0-0.1,0-0.3,0-0.8l0-1.7l0-0.9
		l0-0.7l0-0.4c0-0.6,0-1.1,0-1.6c0-1.1,0-1.8,0-2.1l-0.5-0.1c-0.4,0-0.7-0.1-0.8-0.1l0-0.5l0-0.1c0.3,0,0.5-0.1,0.7-0.1
		c0.1,0,0.4,0,0.7,0c0.4,0,0.6,0,0.6,0l0.4,0l1,0c0.6-0.1,1.3-0.1,1.9-0.1c1.1,0,1.9,0.3,2.5,0.8c0.6,0.5,0.9,1.2,0.9,1.9
		c0,0.5-0.2,1-0.5,1.4s-0.9,0.8-1.6,1c0.1,0.1,0.1,0.2,0.2,0.4c0.2,0.3,0.4,0.6,0.5,0.8l1.2,2c0.3,0.5,0.5,0.9,0.6,0.9
		c0.1,0.1,0.3,0.2,0.6,0.3c0.2,0.1,0.4,0.2,0.5,0.3c0,0.1,0,0.2,0,0.2c0,0,0,0.1,0,0.2h-0.2l-0.2,0l-0.4-0.1h-0.3
		c-0.2,0-0.4,0-0.6,0l-0.8,0c-0.1,0-0.2,0-0.5,0.1c-0.1,0-0.3,0-0.3,0l-0.3-0.5c-0.2-0.4-0.4-0.7-0.5-0.9c-0.2-0.5-0.6-1.3-1.2-2.4
		c-0.3-0.5-0.4-0.8-0.5-0.9c-0.2-0.1-0.4-0.2-0.8-0.2c-0.1,0-0.3,0-0.5,0c0,0.2,0,0.3,0,0.5l0,1.7l0,1.5c0.1,0.1,0.3,0.2,0.6,0.2
		c0.4,0.1,0.8,0.2,1,0.3c0,0.3,0,0.4,0,0.6c-0.1,0-0.2,0-0.2,0l-0.3,0c-1.1-0.1-1.8-0.1-2-0.1c-0.1,0-0.2,0-0.3,0l-1.1,0.1
		c-0.3,0-0.6,0.1-0.9,0.1h-0.3c0-0.1,0-0.2,0-0.2C109.8,246.1,109.8,246,109.9,245.9z M113.4,240.9c0.2,0,0.4,0,0.5,0
		c0.9,0,1.5-0.2,1.9-0.5c0.4-0.3,0.6-0.7,0.6-1.3c0-0.3,0-0.6-0.1-0.9s-0.2-0.5-0.3-0.6c-0.2-0.2-0.4-0.4-0.8-0.5
		c-0.2-0.1-0.6-0.1-1.1-0.1c-0.2,0-0.4,0-0.6,0l0,0.1l0,1.1l0,0.6l0,0.9c0,0.2,0,0.5,0,0.9V240.9z"/>
        <path fill="#231916" d="M131.8,236.9c0,0.2,0.1,0.4,0.1,0.9s0.1,0.8,0.1,1c0,0.1,0,0.2-0.1,0.3c-0.2,0-0.4,0-0.6-0.1
		c-0.4-0.6-0.7-1-0.8-1.1c-0.3-0.3-0.7-0.5-1.2-0.7c-0.3-0.2-0.8-0.2-1.2-0.2c-0.9,0-1.6,0.4-2.3,1.2s-1,1.9-1,3.5
		c0,0.7,0.1,1.4,0.4,2.1s0.6,1.2,1.2,1.6c0.5,0.4,1.1,0.6,1.8,0.6c0.3,0,0.7,0,1.1-0.1c0.2,0,0.3-0.1,0.5-0.2
		c0.1-0.1,0.1-0.2,0.2-0.4c0-0.3,0.1-0.7,0.1-1.3c0-0.5,0-0.9,0-1.1c0-0.1-0.1-0.1-0.1-0.2s-0.1-0.1-0.3-0.1l-0.7-0.2
		c-0.2,0-0.2-0.1-0.3-0.1c0-0.1,0-0.1,0-0.1c0-0.1,0-0.2,0.1-0.3c0.1,0,0.2,0,0.2,0c0.6,0,1.1,0,1.5,0.1c0.1,0,0.3,0,0.5,0l1.2,0
		l0.5,0c0.1,0,0.2,0,0.5,0c0,0.1,0,0.2,0,0.3c0,0.1,0,0.1-0.1,0.2c-0.1,0.1-0.2,0.1-0.5,0.2c-0.2,0.1-0.3,0.1-0.4,0.2
		c0,0-0.1,0.1-0.1,0.2c0,0.1,0,0.4,0,0.9c0,0.6,0,1,0,1.1c0,0.4,0,0.6,0,0.7c0,0.2,0,0.3-0.1,0.4c-0.1,0.1-0.6,0.3-1.4,0.5
		c-0.8,0.2-1.6,0.3-2.6,0.3c-0.7,0-1.3-0.1-1.8-0.2s-1-0.3-1.3-0.5c-0.5-0.3-0.9-0.6-1.3-1.1s-0.6-0.9-0.8-1.4
		c-0.2-0.7-0.4-1.4-0.4-2.1c0-0.8,0.2-1.5,0.5-2.3c0.3-0.6,0.6-1.1,1.1-1.5s1.1-0.8,1.8-1.1s1.5-0.4,2.3-0.4c0.1,0,0.3,0,0.5,0
		c0.6,0,1.2,0.1,1.8,0.2S131.4,236.7,131.8,236.9z"/>
        <path fill="#231916" d="M135.4,246.4c0-0.2,0-0.3,0-0.6l1-0.2c0.1,0,0.3-0.1,0.4-0.1l0.1-2c0-0.7,0-1.2,0-1.6l0-0.2
		c0-0.2,0-0.8,0-1.6l0-0.2l0-0.7l0-0.7v-0.3c0-0.3,0-0.7-0.1-1.1c0,0,0-0.1-0.1-0.2c0,0-0.1,0-0.1,0c0,0-0.1,0-0.2,0
		c-0.2,0-0.4-0.1-0.7-0.1l-0.1,0c-0.1,0-0.2,0-0.3-0.1c0-0.2,0-0.2,0-0.3c0-0.1,0-0.1,0-0.3c0.1,0,0.2,0,0.4,0s0.3,0,0.4,0
		c0.6,0.1,1.1,0.1,1.4,0.1c0.1,0,0.3,0,0.4,0c0.1,0,0.3,0,0.4,0c0.2,0,0.6,0,1.3-0.1c0.1,0,0.2,0,0.4,0c0.2,0,0.4,0,0.5,0
		c0,0.1,0,0.2,0,0.2c0,0.1,0,0.2,0,0.3l-1.4,0.2c-0.1,0.1-0.2,0.1-0.2,0.2l0,0.3l0,0.1l0,0.3l0,0.3v0.1c0,0.1,0,0.1,0,0.1l0,1
		c0,0.1,0,0.2,0,0.2c0,0,0,0.1,0,0.2c0,0.1,0,0.2,0,0.3c0,0.1,0,0.3,0,0.6c0.1,0,0.3,0,0.4,0l1.2,0h0.6l1.4,0l1.4,0
		c0.2,0,0.4,0,0.6-0.1c0-0.2,0-0.6,0-1.3l0-0.4l0-1.3l-0.1-0.5c0,0-0.1-0.1-0.1-0.1c-0.2-0.1-0.5-0.2-1.1-0.4c-0.1,0-0.2,0-0.3-0.1
		c0-0.2,0-0.3,0.1-0.4c0.1,0,0.2,0,0.2,0l0.8,0c0.5,0.1,1,0.1,1.5,0.1c0.1,0,0.2,0,0.3,0l1,0c0.1,0,0.2,0,0.3,0
		c0.2,0,0.4-0.1,0.6-0.1c0.2,0,0.3,0,0.5,0c0,0.2,0,0.4,0,0.6c-0.5,0.1-0.8,0.2-0.9,0.2c-0.1,0-0.3,0.1-0.4,0.2l0,0.2v0.1l0,0.2
		l0,0.1c0,0.1,0,0.2,0,0.2v0.2c0,0.2,0,0.4,0,0.4v1l0,0.8l0,1c0,0.2,0,0.7,0,1.4v1.1l0,0.9c0,0.2,0,0.4,0,0.6c0.1,0,0.2,0.1,0.3,0.1
		c0.5,0.1,0.9,0.2,1.1,0.3l0,0.5c-0.2,0-0.3,0-0.4,0c-0.2,0-0.5,0-0.9,0c-0.4,0-1.1-0.1-2.1-0.1c-0.4,0-1,0-1.7,0.1
		c-0.1,0-0.2,0-0.3,0c0-0.2,0-0.4,0-0.5l0.6-0.1l0.6-0.1c0.1,0,0.1,0,0.2-0.1c0.1-0.4,0.1-1.1,0.1-2.1l0-0.7c0-0.3,0-0.6,0-1
		c-0.2,0-0.4,0-0.6,0l-3.6,0l-0.1,0l-0.1,0c0,0-0.1,0-0.1,0c-0.1,0-0.2,0-0.3,0h-0.2c-0.1,0-0.2,0-0.3,0.1l0,0.6v0.1
		c0,0.1,0,0.2,0,0.3v2.4c0,0.1,0,0.3,0,0.4l0.1,0l1.2,0.2c0.1,0,0.1,0,0.1,0c0.1,0,0.1,0,0.2,0.1c0,0.1,0,0.2,0,0.2
		c0,0.1,0,0.2,0,0.3c-0.2,0-0.3,0-0.5,0c-0.1,0-0.2,0-0.3,0c0,0-0.1,0-0.1,0l-1.1,0c-0.3,0-0.6,0-1.1,0l-0.2,0c-0.2,0-0.3,0-0.4,0
		C136.6,246.4,136.1,246.4,135.4,246.4z"/>
</g>
</svg>
